#!OML:ASF I:\Random Stuff\random\construction\7_22_03\Session 2\subj1.ASF
:FULLY-SPECIFIED
:DEGREES
1035
root 3.82337 17.7574 -12.5654 39.0092 -5.32748 -10.2678
lowerback 47.4159 -6.10088 -7.01141
upperback 12.7151 -11.4879 -10.3448
thorax -8.0228 -4.87984 -2.58484
lowerneck -16.6166 -3.74176 -12.663
upperneck 33.3667 -1.12538 -0.215173
head 14.4735 -2.11904 1.89572
rclavicle 6.36111e-015 -1.19271e-015
rhumerus -18.2742 29.2321 -61.2769
rradius 130.076
rwrist -9.77311
rhand -52.8385 34.7604
rfingers 7.12502
rthumb -25.311 6.41982
lclavicle 6.36111e-015 -1.19271e-015
lhumerus 35.0854 -53.6759 35.8191
lradius 122.453
lwrist 26.4271
lhand -17.0018 -283.792
lfingers 7.12502
lthumb -170.766 -285.986
rfemur -61.0501 -6.44019 40.2875
rtibia 31.6036
rfoot -10.1363 6.93012
rtoes -58.2181
lfemur -56.6751 10.1414 6.4572
ltibia 36.4972
lfoot -13.7154 5.74838
ltoes -62.9437
1036
root 3.82631 17.7565 -12.5681 39.0466 -5.29679 -10.2578
lowerback 47.3876 -6.14321 -6.97578
upperback 12.7137 -11.5231 -10.3755
thorax -8.03335 -4.89424 -2.61866
lowerneck -16.6294 -3.7521 -12.6126
upperneck 33.4316 -1.12529 -0.28705
head 14.5057 -2.12539 1.85769
rclavicle -5.40694e-014 -3.4191e-014
rhumerus -18.3033 29.2333 -61.3322
rradius 130.075
rwrist -9.77891
rhand -52.8636 34.7052
rfingers 7.12502
rthumb -25.3351 6.36801
lclavicle -5.40694e-014 -3.4191e-014
lhumerus 35.0118 -53.8494 35.8735
lradius 122.32
lwrist 26.4805
lhand -18.4803 -283.519
lfingers 7.12502
lthumb -172.193 -286.317
rfemur -61.1004 -6.44207 40.2804
rtibia 31.5725
rfoot -10.0574 6.93407
rtoes -58.1187
lfemur -56.7436 10.1545 6.4365
ltibia 36.4821
lfoot -13.651 5.71588
ltoes -62.9125
1037
root 3.82805 17.758 -12.5707 39.0608 -5.29473 -10.2332
lowerback 47.3707 -6.18451 -7.00847
upperback 12.7236 -11.5878 -10.4258
thorax -8.02663 -4.92182 -2.62883
lowerneck -16.6774 -3.71711 -12.5517
upperneck 33.4655 -1.07991 -0.309049
head 14.5266 -2.10458 1.84571
rclavicle -9.54166e-015 1.19271e-014
rhumerus -18.2688 29.3123 -61.3885
rradius 130.066
rwrist -9.78878
rhand -52.8425 34.8562
rfingers 7.12502
rthumb -25.3148 6.51611
lclavicle -9.54166e-015 1.19271e-014
lhumerus 34.6618 -53.7248 36.1857
lradius 122.094
lwrist 25.9797
lhand -18.6959 -283.091
lfingers 7.12502
lthumb -172.401 -286.753
rfemur -61.1122 -6.39901 40.2032
rtibia 31.5505
rfoot -9.99315 6.8614
rtoes -58.0594
lfemur -56.7748 10.1532 6.40001
ltibia 36.4704
lfoot -13.6556 5.66643
ltoes -62.8547
1038
root 3.82878 17.7608 -12.5727 39.0441 -5.30895 -10.2148
lowerback 47.3495 -6.18386 -7.06223
upperback 12.7551 -11.6043 -10.4372
thorax -7.97849 -4.93157 -2.61219
lowerneck -16.7406 -3.69234 -12.5557
upperneck 33.4641 -1.03903 -0.296427
head 14.5368 -2.08698 1.85798
rclavicle 1.24042e-013 -1.11319e-014
rhumerus -18.2034 29.3414 -61.3562
rradius 130.058
rwrist -9.79043
rhand -52.8919 34.8603
rfingers 7.12502
rthumb -25.3622 6.52693
lclavicle 1.24042e-013 -1.11319e-014
lhumerus 34.2326 -53.4166 36.6187
lradius 121.841
lwrist 24.7591
lhand -19.8749 -282.735
lfingers 7.12502
lthumb -173.539 -287.147
rfemur -61.0712 -6.29624 40.0659
rtibia 31.5394
rfoot -9.95577 6.69688
rtoes -58.1259
lfemur -56.7583 10.1295 6.38263
ltibia 36.4626
lfoot -13.6802 5.65633
ltoes -62.8203
1039
root 3.82974 17.7611 -12.5746 39.03 -5.30178 -10.2188
lowerback 47.3458 -6.17712 -7.08749
upperback 12.7752 -11.6039 -10.4411
thorax -7.95054 -4.9328 -2.60656
lowerneck -16.7745 -3.66704 -12.519
upperneck 33.4259 -1.01316 -0.2941
head 14.5234 -2.06994 1.85688
rclavicle 3.18055e-015 1.98785e-014
rhumerus -18.1444 29.3321 -61.3294
rradius 130.037
rwrist -9.81533
rhand -52.9162 34.758
rfingers 7.12502
rthumb -25.3855 6.42801
lclavicle 3.18055e-015 1.98785e-014
lhumerus 34.1993 -53.4714 36.7833
lradius 121.564
lwrist 24.3026
lhand -20.7772 -282.49
lfingers 7.12502
lthumb -174.411 -287.416
rfemur -61.0516 -6.24959 40.016
rtibia 31.5407
rfoot -9.94321 6.63564
rtoes -58.1389
lfemur -56.7504 10.1171 6.39127
ltibia 36.4573
lfoot -13.6702 5.67685
ltoes -62.8337
1040
root 3.83088 17.7594 -12.5767 39.0365 -5.28521 -10.2369
lowerback 47.3512 -6.27234 -7.13036
upperback 12.7984 -11.7424 -10.5447
thorax -7.94854 -4.99114 -2.63513
lowerneck -16.9341 -3.55558 -12.2878
upperneck 33.4143 -0.887564 -0.360282
head 14.5371 -2.00033 1.81079
rclavicle 6.99722e-014 1.43125e-014
rhumerus -17.897 29.5072 -61.4493
rradius 129.966
rwrist -9.81933
rhand -52.9697 34.7672
rfingers 7.12502
rthumb -25.4367 6.44447
lclavicle 6.99722e-014 1.43125e-014
lhumerus 33.906 -53.4516 36.8805
lradius 121.498
lwrist 24.3545
lhand -21.3093 -282.335
lfingers 7.12502
lthumb -174.924 -287.584
rfemur -61.0693 -6.24682 40.0401
rtibia 31.5484
rfoot -9.94395 6.6617
rtoes -58.0957
lfemur -56.7715 10.1266 6.41234
ltibia 36.458
lfoot -13.6606 5.67943
ltoes -62.8302
1041
root 3.83106 17.7581 -12.5794 39.0153 -5.32419 -10.2345
lowerback 47.3337 -6.14542 -7.161
upperback 12.7921 -11.5933 -10.4303
thorax -7.91097 -4.93091 -2.56814
lowerneck -16.7925 -3.66506 -12.5708
upperneck 33.3863 -0.996444 -0.283228
head 14.5095 -2.06602 1.87264
rclavicle -1.59028e-014 -6.55989e-014
rhumerus -17.9558 29.3724 -61.2017
rradius 129.956
rwrist -9.80999
rhand -53.1144 34.6979
rfingers 7.12502
rthumb -25.5754 6.39495
lclavicle -1.59028e-014 -6.55989e-014
lhumerus 34.0388 -53.4988 37.2298
lradius 121.489
lwrist 23.9248
lhand -20.562 -282.841
lfingers 7.12502
lthumb -174.203 -287.059
rfemur -61.0509 -6.21106 39.9964
rtibia 31.5547
rfoot -9.94153 6.63676
rtoes -58.1343
lfemur -56.7438 10.1017 6.42608
ltibia 36.4699
lfoot -13.6828 5.73428
ltoes -62.8244
1042
root 3.82994 17.7575 -12.5821 38.9871 -5.3955 -10.2504
lowerback 47.3316 -6.06135 -7.24637
upperback 12.7951 -11.5318 -10.4174
thorax -7.88529 -4.90597 -2.54295
lowerneck -16.7698 -3.68775 -12.6386
upperneck 33.3922 -1.02459 -0.238405
head 14.511 -2.07998 1.89788
rclavicle 0 3.65764e-014
rhumerus -17.9461 29.3401 -61.1337
rradius 129.935
rwrist -9.85875
rhand -53.1514 34.6694
rfingers 7.12502
rthumb -25.6107 6.37161
lclavicle 0 3.65764e-014
lhumerus 34.3132 -53.725 37.0987
lradius 121.6
lwrist 24.1632
lhand -22.0635 -283.462
lfingers 7.12502
lthumb -175.653 -286.474
rfemur -61.0086 -6.15007 39.9566
rtibia 31.5549
rfoot -9.93908 6.61379
rtoes -58.214
lfemur -56.6892 10.1226 6.42781
ltibia 36.491
lfoot -13.7063 5.78352
ltoes -62.8644
1043
root 3.8304 17.7559 -12.5838 39.0168 -5.37483 -10.329
lowerback 47.2893 -6.07585 -7.18623
upperback 12.7915 -11.5231 -10.4302
thorax -7.89352 -4.90283 -2.58902
lowerneck -16.8217 -3.69011 -12.6473
upperneck 33.4653 -1.02756 -0.198086
head 14.5562 -2.08106 1.91516
rclavicle -2.54444e-014 -4.45278e-014
rhumerus -17.9447 29.3755 -61.1382
rradius 129.924
rwrist -9.89579
rhand -53.1668 34.7653
rfingers 7.12502
rthumb -25.6255 6.46958
lclavicle -2.54444e-014 -4.45278e-014
lhumerus 34.5573 -53.9997 36.8525
lradius 121.686
lwrist 24.1709
lhand -22.2412 -282.007
lfingers 7.12502
lthumb -175.824 -287.932
rfemur -61.0264 -6.12931 40.0626
rtibia 31.5486
rfoot -9.94922 6.64903
rtoes -58.2787
lfemur -56.7275 10.2301 6.46333
ltibia 36.516
lfoot -13.6974 5.72248
ltoes -62.8865
1044
root 3.83312 17.7542 -12.5859 39.0563 -5.30111 -10.381
lowerback 47.239 -6.13863 -7.06783
upperback 12.7921 -11.5409 -10.4305
thorax -7.90381 -4.91135 -2.63791
lowerneck -16.8526 -3.71971 -12.6993
upperneck 33.5177 -1.06039 -0.152743
head 14.5911 -2.09776 1.93678
rclavicle 9.54166e-015 1.35174e-014
rhumerus -17.9332 29.3914 -61.0896
rradius 129.916
rwrist -9.95957
rhand -53.1111 34.8457
rfingers 7.12502
rthumb -25.5722 6.54235
lclavicle 9.54166e-015 1.35174e-014
lhumerus 34.5108 -53.9747 36.9975
lradius 121.751
lwrist 23.3242
lhand -20.4906 -282.224
lfingers 7.12502
lthumb -174.134 -287.675
rfemur -61.0771 -6.1624 40.1772
rtibia 31.5452
rfoot -9.96226 6.67863
rtoes -58.2618
lfemur -56.8168 10.2958 6.49393
ltibia 36.5435
lfoot -13.6747 5.63629
ltoes -62.8385
1045
root 3.83476 17.7541 -12.5881 39.0537 -5.28334 -10.3831
lowerback 47.2163 -6.14514 -7.03404
upperback 12.809 -11.529 -10.4267
thorax -7.88388 -4.90769 -2.65698
lowerneck -16.8053 -3.77852 -12.7534
upperneck 33.4627 -1.15155 -0.103729
head 14.5637 -2.13227 1.95071
rclavicle -2.54444e-014 3.29983e-014
rhumerus -17.9169 29.3127 -60.9997
rradius 129.92
rwrist -10.098
rhand -52.9784 34.9712
rfingers 7.12502
rthumb -25.445 6.64968
lclavicle -2.54444e-014 3.29983e-014
lhumerus 34.7639 -54.2829 36.7554
lradius 121.853
lwrist 23.9587
lhand -21.7691 -281.772
lfingers 7.12502
lthumb -175.368 -288.158
rfemur -61.0857 -6.1779 40.1895
rtibia 31.5484
rfoot -9.95813 6.67213
rtoes -58.1869
lfemur -56.8428 10.2948 6.4956
ltibia 36.5686
lfoot -13.6643 5.6059
ltoes -62.8182
1046
root 3.83519 17.7537 -12.5902 39.052 -5.28927 -10.3718
lowerback 47.1836 -6.14827 -7.04255
upperback 12.8178 -11.5325 -10.4301
thorax -7.86505 -4.91078 -2.65714
lowerneck -16.7594 -3.80906 -12.7723
upperneck 33.4057 -1.19142 -0.121418
head 14.5314 -2.15011 1.93996
rclavicle 6.36111e-014 9.34288e-014
rhumerus -17.8729 29.3086 -60.9395
rradius 129.914
rwrist -10.1645
rhand -52.9578 34.974
rfingers 7.12502
rthumb -25.4253 6.64962
lclavicle 6.36111e-014 9.34288e-014
lhumerus 34.7364 -54.3211 36.8593
lradius 121.939
lwrist 24.0985
lhand -22.0243 -281.903
lfingers 7.12502
lthumb -175.615 -288.032
rfemur -61.1017 -6.17792 40.1751
rtibia 31.5615
rfoot -9.93525 6.66657
rtoes -58.1364
lfemur -56.8592 10.3066 6.47084
ltibia 36.585
lfoot -13.6576 5.57744
ltoes -62.8631
